<?xml version="1.0" standalone="no"?>
<!DOCTYPE svg PUBLIC "-//W3C//DTD SVG 20010904//EN"
 "http://www.w3.org/TR/2001/REC-SVG-20010904/DTD/svg10.dtd">
<svg version="1.0" xmlns="http://www.w3.org/2000/svg"
 width="600.000000pt" height="600.000000pt" viewBox="0 0 600.000000 600.000000"
 preserveAspectRatio="xMidYMid meet">
<metadata>
Created by potrace 1.14, written by Peter Selinger 2001-2017
</metadata>
<g transform="translate(0.000000,600.000000) scale(0.100000,-0.100000)"
fill="#000000" stroke="none">
<path d="M2667 5524 c-1 -1 -51 -5 -111 -8 -60 -4 -112 -9 -115 -10 -3 -2 -28
-7 -56 -10 -55 -8 -250 -50 -305 -67 -19 -5 -42 -12 -50 -14 -23 -5 -208 -74
-265 -98 -434 -188 -829 -520 -1098 -924 -117 -177 -241 -431 -254 -519 -16
-117 82 -225 205 -226 92 0 162 51 201 148 155 381 436 723 781 955 118 79
123 81 241 140 201 100 425 170 654 204 95 14 442 14 550 -1 201 -27 416 -88
597 -171 112 -51 145 -57 212 -42 107 25 173 138 146 251 -19 77 -70 122 -206
180 -105 45 -324 122 -375 131 -13 3 -51 12 -84 20 -33 8 -80 18 -105 22 -25
4 -54 9 -65 11 -72 15 -228 26 -373 28 -67 1 -124 1 -125 0z"/>
<path d="M2678 4855 c-2 -2 -38 -5 -82 -9 -190 -16 -266 -48 -308 -129 -57
-112 5 -251 134 -297 29 -11 51 -11 105 -2 333 55 630 12 916 -135 103 -53
229 -138 286 -194 46 -45 85 -62 140 -63 74 -1 104 8 146 46 50 44 75 96 75
160 0 55 -26 119 -60 148 -160 136 -273 211 -435 290 -148 73 -337 136 -465
155 -25 4 -54 9 -65 11 -59 12 -377 27 -387 19z"/>
<path d="M4356 4839 c-82 -23 -138 -94 -144 -184 -5 -80 10 -114 88 -198 77
-83 121 -107 193 -107 142 0 242 139 197 275 -15 46 -137 177 -187 200 -41 20
-105 26 -147 14z"/>
<path d="M5285 4523 c-27 -10 -84 -38 -125 -62 -41 -24 -129 -75 -195 -113
-66 -39 -133 -78 -150 -88 -16 -9 -75 -43 -130 -75 -258 -150 -612 -355 -725
-420 -119 -68 -254 -125 -330 -139 -19 -3 -46 -9 -60 -12 -89 -19 -290 -8
-425 24 -39 9 -270 8 -313 -1 -105 -23 -244 -87 -329 -151 -322 -242 -389
-647 -148 -892 69 -69 122 -103 220 -139 271 -98 621 -5 833 220 67 70 90 104
142 205 106 204 271 365 471 460 34 16 390 138 792 271 403 133 747 252 767
264 55 34 108 95 138 155 23 48 27 67 27 150 0 83 -3 102 -27 150 -35 73 -103
141 -172 174 -76 36 -190 44 -261 19z"/>
<path d="M1712 4490 c-50 -12 -106 -55 -222 -170 -275 -272 -448 -599 -520
-983 -33 -171 -33 -484 0 -652 11 -60 22 -114 24 -120 2 -5 6 -23 10 -40 38
-150 148 -396 239 -531 123 -185 321 -394 406 -430 77 -32 182 -7 236 57 36
43 47 74 47 134 0 75 -21 110 -128 215 -182 178 -291 347 -368 568 -164 472
-75 980 243 1373 57 72 170 186 202 205 8 5 30 28 48 51 45 56 54 147 23 210
-46 89 -146 137 -240 113z"/>
<path d="M4995 3449 c-95 -46 -126 -106 -118 -231 16 -288 3 -491 -43 -683 -8
-33 -17 -69 -19 -79 -18 -79 -83 -250 -141 -374 -64 -135 -70 -185 -29 -261
68 -124 236 -146 332 -43 28 30 78 126 128 248 38 92 106 284 101 284 -2 0 2
21 10 48 14 44 45 192 58 272 21 127 28 465 14 619 -8 92 -44 155 -107 190
-58 32 -133 36 -186 10z"/>
<path d="M396 3297 c-57 -14 -119 -80 -135 -142 -13 -54 -13 -294 0 -410 5
-38 10 -88 13 -110 2 -22 7 -47 10 -55 2 -8 7 -33 10 -55 12 -95 77 -320 138
-475 41 -102 163 -334 232 -438 137 -208 337 -428 526 -579 47 -37 87 -71 88
-75 2 -4 7 -8 11 -8 4 0 56 -33 117 -73 240 -158 580 -298 859 -352 327 -63
644 -66 965 -9 100 18 277 61 305 74 11 5 48 18 82 29 79 25 248 98 338 147
248 133 532 350 575 439 23 47 25 118 6 165 -32 78 -110 131 -193 131 -64 1
-91 -11 -150 -64 -210 -186 -445 -328 -696 -421 -219 -82 -476 -126 -732 -126
-798 -1 -1537 466 -1890 1195 -56 114 -135 327 -149 396 -2 13 -11 58 -20 99
-8 41 -18 95 -21 120 -3 25 -8 59 -11 75 -3 17 -7 109 -9 206 -3 191 -5 201
-63 261 -52 55 -126 75 -206 55z"/>
<path d="M4371 3245 c-48 -16 -111 -72 -128 -114 -9 -21 -17 -75 -18 -131 -3
-101 -11 -174 -27 -255 -5 -27 -11 -61 -14 -75 -12 -63 -61 -195 -110 -295
-202 -410 -579 -694 -1039 -781 -147 -28 -451 -21 -543 11 -36 13 -113 16
-150 6 -56 -15 -100 -55 -128 -114 -46 -101 -4 -222 94 -270 32 -17 159 -43
262 -56 73 -9 425 -8 465 2 11 2 52 10 90 17 694 124 1268 653 1450 1334 25
95 30 119 41 195 4 25 8 55 11 66 2 11 6 84 8 162 3 136 3 144 -22 193 -16 32
-40 61 -63 76 -46 31 -133 45 -179 29z"/>
</g>
</svg>
