<?xml version="1.0" encoding="utf-8"?>
<!-- Generator: Adobe Illustrator 25.3.1, SVG Export Plug-In . SVG Version: 6.00 Build 0)  -->
<svg version="1.1" id="Layer_1" xmlns="http://www.w3.org/2000/svg" xmlns:xlink="http://www.w3.org/1999/xlink" x="0px" y="0px"
	 viewBox="0 0 830 60" style="enable-background:new 0 0 830 60;" xml:space="preserve">
<style type="text/css">
	.st0{fill:#FFFFFF;}
</style>
<g>
	<path class="st0" d="M0,8.75c25.12-0.14,50.43,3.05,74.29,11.14c19.51,6.28,38.32,14.74,58.24,19.75
		c25.6,6.5,52.24,8.46,78.57,6.89c44.76-2.33,87.25-17.66,130.69-27.21c27.6-6.09,55.95-9.19,84.21-8.06
		c28.9,0.73,57.42,6.29,85.31,13.6C532.17,30.18,552.9,36.07,574,40.4c40.78,8.56,83.62,9.49,124.15-0.93
		c24.48-6.26,47.32-17.58,71.82-23.78c19.56-5.11,39.85-6.99,60.03-6.94V60H0V8.75z"/>
</g>
</svg>
